<svg width="24" height="20" viewBox="0 0 24 20" fill="none" xmlns="http://www.w3.org/2000/svg">
<path fill-rule="evenodd" clip-rule="evenodd" d="M23.5204 0.118498C24.0235 0.512261 24.1295 1.28274 23.8445 2.47346C23.763 2.81406 23.5501 3.82157 23.3713 4.71237C23.1925 5.60317 22.8682 7.12516 22.6505 8.09456C22.4327 9.06396 22.1695 10.2858 22.0655 10.8098C21.8469 11.9114 21.1426 15.201 20.7396 17.0026C20.5873 17.6838 20.4107 18.4971 20.3472 18.81C20.2597 19.2417 20.1532 19.4571 19.9057 19.7029C19.5988 20.0078 19.5488 20.0244 19.0577 19.984C18.4921 19.9374 18.2594 19.8007 16.4188 18.4337C14.8496 17.2684 13.7023 16.4278 13.2344 16.101L12.7835 15.7859L11.2759 17.2279C10.2089 18.2485 9.67057 18.6967 9.43406 18.7616C9.2502 18.812 9.05886 18.8282 9.00899 18.7975C8.95711 18.7657 8.9433 18.491 8.97667 18.158C9.0089 17.8369 9.10078 16.5894 9.18076 15.3857C9.32453 13.2233 9.32942 13.1939 9.5877 12.9194C9.8504 12.6401 16.9331 6.25817 17.9413 5.39214C18.6551 4.77906 19.6797 3.8048 19.6797 3.73925C19.6797 3.58958 18.9707 3.83443 18.5639 4.12454C18.3072 4.30756 17.5793 4.77306 16.9463 5.15901C16.3133 5.54496 15.4582 6.07392 15.046 6.33458C14.6337 6.59516 13.6627 7.20386 12.888 7.68727C9.95043 9.52032 9.08188 10.066 8.13709 10.6723C6.44785 11.7563 6.44574 11.7571 5.87182 11.6203C4.69761 11.3405 0.446844 9.91723 0.240736 9.73478C-0.219338 9.32768 -0.00172125 8.72336 0.737734 8.35437C1.07284 8.18717 4.19476 6.95129 4.28194 6.95129C4.31436 6.95129 5.26462 6.58687 6.39356 6.14147C7.5226 5.69606 8.4838 5.33165 8.52964 5.33165C8.57539 5.33165 9.283 5.05869 10.102 4.72504C10.9209 4.39149 11.7601 4.06499 11.9668 3.99954C12.1736 3.93418 13.2059 3.54499 14.2609 3.13465C15.3158 2.72431 16.5675 2.24271 17.0422 2.06435C18.5982 1.47976 20.767 0.651931 21.5979 0.325621C22.4591 -0.0125978 23.2448 -0.0972951 23.5204 0.118498Z" fill="#6C6C6C"/>
</svg>
