<svg width="25" height="25" viewBox="0 0 25 25" fill="none" xmlns="http://www.w3.org/2000/svg">
<path fill-rule="evenodd" clip-rule="evenodd" d="M5.00858 0.262128C2.62382 1.02635 0.969161 2.71865 0.257152 5.12193C-0.0843837 6.27425 -0.0862368 18.6806 0.254729 19.8433C0.966596 22.2702 2.71333 24.0184 5.14927 24.7421C6.30616 25.086 18.6938 25.086 19.8507 24.7421C22.2867 24.0184 24.0334 22.2702 24.7453 19.8433C25.0862 18.6806 25.0844 6.27425 24.7428 5.12193C24.0201 2.68268 22.2743 0.933567 19.8507 0.220734C19.189 0.0261819 18.1125 -0.00579116 12.4384 0.000774782C6.48249 0.0076262 5.71902 0.0344608 5.00858 0.262128ZM19.7032 4.63448C20.2607 4.92309 20.6036 5.60566 20.4916 6.20345C20.2688 7.39303 18.8265 7.84893 17.977 6.99822C17.3957 6.41613 17.3844 5.4919 17.9523 4.96206C18.5842 4.37241 19.0344 4.28819 19.7032 4.63448ZM13.5853 6.55972C16.7396 7.14923 18.9828 10.313 18.4388 13.4051C17.9807 16.0101 16.0297 17.9715 13.4451 18.426C10.266 18.9848 7.1409 16.7151 6.56474 13.429C5.95379 9.94375 8.76363 6.55915 12.3737 6.43197C12.6177 6.42327 13.163 6.48079 13.5853 6.55972ZM10.9227 8.82712C9.41092 9.51483 8.5816 10.8112 8.58459 12.4826C8.58858 14.7854 10.2062 16.4096 12.4923 16.4065C14.8242 16.4034 16.4137 14.8127 16.4137 12.4826C16.4137 10.8596 15.6062 9.54338 14.2115 8.89292C13.2965 8.46627 11.7829 8.43601 10.9227 8.82712Z" fill="#ECC48C"/>
</svg>
