<svg width="30" height="19" viewBox="0 0 30 19" fill="none" xmlns="http://www.w3.org/2000/svg">
<path fill-rule="evenodd" clip-rule="evenodd" d="M12.3491 0.0576994C11.0973 0.164125 10.4336 0.399335 10.0913 0.858277C9.88454 1.13552 10.0074 1.39637 10.3446 1.39637C10.7416 1.39637 11.3983 2.11079 11.5522 2.71014C11.7824 3.60656 11.8618 6.00621 11.7024 7.25291C11.5143 8.72558 11.2621 9.29631 10.7998 9.29631C9.9041 9.29631 9.10115 8.11028 7.32644 4.16612C6.35655 2.01033 5.88882 1.1233 5.65167 0.989744C5.18435 0.726661 0.758414 0.732623 0.298456 0.997047C-0.257699 1.31677 -0.106971 1.91299 1.35369 5.17075C3.26574 9.43508 5.49076 13.2339 7.22408 15.1934C8.66357 16.8206 10.7336 18.206 12.4594 18.6969C13.6257 19.0287 16.4037 19.1004 16.9703 18.8132C17.3738 18.6087 17.4242 18.4564 17.5718 16.9921C17.7388 15.3359 18.3326 14.4173 19.1006 14.627C19.2601 14.6707 20.1143 15.5301 20.9985 16.5371C23.2131 19.059 23.127 19.0201 26.4504 18.9945C27.9149 18.9831 29.2584 18.9125 29.4356 18.8375C29.9253 18.6303 30.0786 18.1979 29.9096 17.4997C29.7097 16.6743 29.0756 15.7892 27.0222 13.4699C26.0277 12.3466 25.2019 11.2859 25.153 11.0689C25.0176 10.4677 25.3177 9.88195 27.1909 7.09044C29.6352 3.44767 30.3368 1.89213 29.8594 1.17278C29.6728 0.891367 29.4956 0.873629 26.6901 0.855295C25.0556 0.844563 23.5997 0.870351 23.4546 0.912533C23.2713 0.965895 22.9123 1.63799 22.2795 3.1123C21.2026 5.6218 19.9443 7.84183 19.1191 8.68802C18.4754 9.34804 18.2485 9.42018 17.9301 9.06602C17.503 8.59083 17.4195 7.688 17.5107 4.53175C17.634 0.267719 17.5816 0.177242 14.9024 0.0223732C14.2024 -0.0180208 13.0533 -0.00222099 12.3491 0.0576994Z" fill="#ECC48C"/>
</svg>
