<svg width="15" height="30" viewBox="0 0 15 30" fill="none" xmlns="http://www.w3.org/2000/svg">
<path fill-rule="evenodd" clip-rule="evenodd" d="M10.2756 0.0169579C8.3897 0.203813 6.93278 0.939842 5.88204 2.23659C5.23447 3.03574 4.78296 4.06395 4.57751 5.20741C4.45367 5.89661 4.44966 5.9918 4.43746 8.52279L4.42562 10.9806H2.21282H0V13.6452V16.3097H2.21457H4.42913V23.1549V30H7.08661H9.74409V23.1549V16.3097H11.9587C13.9477 16.3097 14.1732 16.3048 14.1732 16.2618C14.1732 16.2355 14.3194 15.0667 14.498 13.6646C14.6767 12.2625 14.8228 11.085 14.8228 11.048V10.9806H12.2835H9.74409L9.74418 9.12002C9.74427 6.8316 9.76905 6.56931 10.0389 5.99977C10.2479 5.55855 10.526 5.30989 10.9919 5.14766C11.4337 4.99382 11.6568 4.97808 13.3981 4.97789L15 4.97771V2.5922V0.206723L14.904 0.188684C14.7358 0.157077 13.9384 0.0792839 13.4498 0.0468499C12.7983 0.00357389 10.6179 -0.0169462 10.2756 0.0169579Z" fill="#ECC48C"/>
</svg>
