<svg width="13" height="25" viewBox="0 0 13 25" fill="none" xmlns="http://www.w3.org/2000/svg">
<path fill-rule="evenodd" clip-rule="evenodd" d="M8.90551 0.0141316C7.27107 0.169845 6.00841 0.783202 5.09777 1.86383C4.53654 2.52979 4.14523 3.38663 3.96718 4.33951C3.85985 4.91385 3.85637 4.99317 3.8458 7.10233L3.83554 9.15051H1.91778H0V11.371V13.5914H1.91929H3.83858V19.2957V25H6.14173H8.44488V19.2957V13.5914H10.3642C12.088 13.5914 12.2835 13.5874 12.2835 13.5515C12.2835 13.5296 12.4101 12.5556 12.565 11.3872C12.7198 10.2188 12.8465 9.23752 12.8465 9.20663V9.15051H10.6457H8.44488L8.44496 7.60002C8.44504 5.693 8.46651 5.47442 8.70035 4.9998C8.88148 4.63213 9.12252 4.42491 9.52629 4.28972C9.90922 4.16152 10.1025 4.1484 11.6117 4.14825L13 4.14809V2.16017V0.172269L12.9168 0.157236C12.7711 0.130897 12.0799 0.0660699 11.6565 0.0390416C11.0919 0.00297824 9.20216 -0.0141219 8.90551 0.0141316Z" fill="white"/>
</svg>
