<svg width="23" height="23" viewBox="0 0 23 23" fill="none" xmlns="http://www.w3.org/2000/svg">
<path fill-rule="evenodd" clip-rule="evenodd" d="M4.6079 0.241158C2.41391 0.944239 0.891629 2.50116 0.23658 4.71217C-0.077633 5.77231 -0.0793379 17.1862 0.234351 18.2559C0.889268 20.4886 2.49627 22.097 4.73733 22.7627C5.80167 23.0791 17.1983 23.0791 18.2627 22.7627C20.5037 22.097 22.1107 20.4886 22.7656 18.2559C23.0793 17.1862 23.0776 5.77231 22.7634 4.71217C22.0985 2.46806 20.4923 0.858881 18.2627 0.203075C17.6539 0.0240874 16.6635 -0.00532787 11.4433 0.000712799C5.96389 0.00701611 5.2615 0.031704 4.6079 0.241158ZM18.1269 4.26372C18.6398 4.52924 18.9554 5.15721 18.8523 5.70718C18.6473 6.80159 17.3204 7.22102 16.5388 6.43836C16.004 5.90284 15.9937 5.05255 16.5161 4.56509C17.0975 4.02262 17.5116 3.94514 18.1269 4.26372ZM12.4985 6.03495C15.4004 6.57729 17.4642 9.48798 16.9637 12.3327C16.5422 14.7293 14.7473 16.5338 12.3695 16.9519C9.44476 17.466 6.56963 15.3779 6.03956 12.3547C5.47749 9.14825 8.06254 6.03442 11.3838 5.91742C11.6083 5.90941 12.1099 5.96233 12.4985 6.03495ZM10.0489 8.12095C8.65805 8.75364 7.89507 9.94628 7.89782 11.484C7.9015 13.6026 9.38968 15.0969 11.4929 15.094C13.6383 15.0911 15.1006 13.6277 15.1006 11.484C15.1006 9.9908 14.3577 8.77991 13.0746 8.18149C12.2328 7.78897 10.8402 7.76113 10.0489 8.12095Z" fill="white"/>
</svg>
