<svg width="89" height="806" viewBox="0 0 89 806" fill="none" xmlns="http://www.w3.org/2000/svg">
<path fill-rule="evenodd" clip-rule="evenodd" d="M36.9022 250.987C-5.07614 174.689 17.7512 77.0627 46.6589 0L48.5315 0.702741C19.6286 77.7525 -2.8516 174.583 38.6544 250.023C84.3727 333.118 94.8535 420.307 86.2574 482.641C81.9619 513.79 72.8874 538.839 60.9646 554.061C60.6116 554.512 60.256 554.954 59.8977 555.388C67.0681 570.469 68.9866 593.362 60.0132 626.554C43.1475 688.94 43.1807 750.64 71.9297 805.065L70.1613 806C41.1003 750.984 41.1342 688.724 58.0825 626.032C66.8225 593.703 65.0517 571.568 58.468 557.057C53.1438 563.052 47.2779 567.197 41.0194 569.118C33.739 571.353 26.0332 570.544 18.2138 566.31C9.88732 561.801 4.72141 557.202 2.10284 552.806C-0.544178 548.361 -0.580575 544.118 1.36868 540.555C3.28511 537.053 7.03509 534.363 11.6724 532.737C16.3255 531.104 21.9667 530.505 27.8236 531.26C39.1873 532.725 51.4283 539.297 58.9138 553.428C59.0731 553.23 59.2319 553.029 59.3902 552.827C71.0061 537.997 80.0045 513.344 84.2762 482.367C92.8148 420.451 82.4085 333.697 36.9022 250.987ZM57.5262 555.096C50.4067 541.08 38.5372 534.658 27.568 533.244C21.9935 532.526 16.6688 533.104 12.3343 534.624C7.98397 536.15 4.72473 538.589 3.1231 541.516C1.55429 544.383 1.49099 547.87 3.82105 551.782C6.17954 555.742 10.9947 560.126 19.166 564.551C26.5623 568.556 33.7155 569.267 40.4326 567.205C46.4627 565.354 52.2256 561.242 57.5262 555.096Z" fill="#ECC48C"/>
</svg>
