<svg width="96" height="75" viewBox="0 0 96 75" fill="none" xmlns="http://www.w3.org/2000/svg">
<path fill-rule="evenodd" clip-rule="evenodd" d="M0 16.0955L22.972 23.1896V44.5482L48.2835 52.0719L57.2086 49.5958L56.4057 46.7096L48.3121 48.955L25.9715 42.3144V24.1159L48 30.9185L61.4341 26.7699V64.0164H57.4666V75H68.4649V64.0164H64.4336V25.8436L70.9645 23.8268V42.2991L67.29 43.3393L68.1081 46.2213L73.9641 44.5635V22.9005L96 16.0955L48 0L0 16.0955ZM48 27.7831L59.0064 24.3841L47.3722 15.2695L49.2235 12.9127L62.4921 23.3077L86.2267 15.9782L48 3.15987L9.77331 15.9782L48 27.7831ZM60.4662 67.0119H65.4654V72.0044H60.4662V67.0119Z" fill="white"/>
</svg>
