<svg width="183" height="72" viewBox="0 0 183 72" fill="none" xmlns="http://www.w3.org/2000/svg">
<path fill-rule="evenodd" clip-rule="evenodd" d="M162.434 5.00904C160.133 0.368614 154.928 -0.640425 149.534 0.342014C144.087 1.33408 138.017 4.39298 133.255 8.514C128.512 12.6184 124.891 17.9334 124.681 23.5076C124.483 28.7442 127.296 33.8789 134.236 38.184C126.841 42.4092 118.568 46.6259 110.188 50.8624C96.2406 57.9138 81.2726 57.7438 67.2345 54.7674C55.066 52.1874 43.6879 47.5218 34.3475 43.6917L34.3451 43.6907C32.8985 43.0976 31.5008 42.5244 30.1565 41.9822C13.6964 35.3424 3.22543 43.3522 0 48.412L1.67924 49.5006C4.44268 45.1656 13.9347 37.6068 29.4151 43.8514C30.7449 44.3878 32.1331 44.9572 33.5744 45.5483L33.5754 45.5488C42.9066 49.3762 54.4651 54.1171 66.8238 56.7375C81.108 59.7661 96.5835 59.9925 111.083 52.6621C119.817 48.2465 128.515 43.8144 136.247 39.3454C144.327 43.7274 151.074 46.8943 156.581 49.4241C157.288 49.749 157.974 50.0629 158.638 50.3671L158.639 50.3674C163.198 52.455 166.759 54.0854 169.459 55.6763C172.547 57.4954 174.33 59.1641 175.179 61.2113C175.934 63.033 176.016 65.3143 175.339 68.5687L172.884 63.8749L171.118 64.8142L174.877 72L182.002 68.2094L181.071 66.4288L177.413 68.3747C178.006 65.2063 177.937 62.6459 177.021 60.4348C175.92 57.7793 173.679 55.8306 170.466 53.938C167.67 52.2907 164.001 50.6111 159.463 48.5336L159.463 48.5335C158.797 48.2287 158.112 47.9152 157.409 47.5921C152.167 45.1839 145.821 42.208 138.277 38.1576C142.961 35.3827 147.242 32.5928 150.898 29.7833C155.935 25.9139 159.879 21.9404 162.041 17.8354C164.232 13.6766 164.595 9.36832 162.434 5.00904ZM149.689 28.1819C145.833 31.1443 141.259 34.0919 136.226 37.0341C128.966 32.8497 126.506 28.0724 126.675 23.5841C126.855 18.8165 130.003 13.9807 134.555 10.0418C139.088 6.1196 144.84 3.24279 149.889 2.32314C154.991 1.39386 158.956 2.49709 160.648 5.90936C162.48 9.60279 162.212 13.2195 160.278 16.8909C158.316 20.616 154.64 24.3779 149.689 28.1819Z" fill="#A38862"/>
</svg>
