<svg width="284" height="127" viewBox="0 0 284 127" fill="none" xmlns="http://www.w3.org/2000/svg">
<path fill-rule="evenodd" clip-rule="evenodd" d="M272.045 35.839C280.114 30.6014 283.648 23.7883 282.935 17.3912C282.222 11.0032 277.313 5.41184 269.314 2.5332C253.321 -3.22177 224.71 1.64594 189.347 32.2433C181.634 38.9162 175.565 45.8907 170.898 52.9223C158.97 51.309 147.187 48.7527 135.76 45.6838C115.054 40.1226 95.5718 32.8933 78.5568 26.5796L78.5566 26.5795L78.556 26.5793C77.5881 26.2202 76.6283 25.864 75.6766 25.5112C58.0561 18.98 43.1344 13.5779 32.6024 12.5034C24.3308 11.6595 17.0373 14.1145 11.4909 17.3336C5.97068 20.5374 2.0827 24.5563 0.640625 26.9898L2.36121 28.0094C3.5858 25.9429 7.18708 22.1439 12.4948 19.0633C17.7764 15.998 24.6495 13.7024 32.3994 14.4931C42.6175 15.5356 57.2583 20.8173 74.9815 27.3866C75.9385 27.7413 76.9041 28.0996 77.8781 28.461L77.8782 28.4611C94.8805 34.7702 114.442 42.0292 135.242 47.6154C146.423 50.6184 157.977 53.1424 169.701 54.7763C152.854 81.5971 156.067 108.933 166.085 123.251L156.335 119.779L155.664 121.663L168.597 126.268L173.202 113.336L171.318 112.665L167.879 122.324C158.178 108.691 154.764 81.6759 171.88 55.0693C205.583 59.4377 240.577 56.2659 272.045 35.839ZM190.655 33.7558C183.375 40.0548 177.599 46.61 173.11 53.2102C206.203 57.3523 240.313 54.0529 270.956 34.1614C278.603 29.1976 281.552 23.0349 280.947 17.613C280.341 12.1821 276.129 7.1111 268.637 4.41506C253.646 -0.979321 225.792 3.35412 190.655 33.7558Z" fill="#A38862"/>
</svg>
