<svg width="75" height="75" viewBox="0 0 75 75" fill="none" xmlns="http://www.w3.org/2000/svg">
<path fill-rule="evenodd" clip-rule="evenodd" d="M37.5 0L48.1794 8.87197L61.9764 9.0461L64.5411 22.8129L75 31.9516L68.25 44.1716L70.4769 57.9988L57.5706 62.9541L50.5236 74.9999L37.5 70.3719L24.4764 74.9999L17.4294 62.9541L4.52305 57.9988L6.75 44.1716L0 31.9516L10.4589 22.8129L13.0236 9.0461L26.8206 8.87197L37.5 0ZM47.0755 11.9515L59.4464 12.1077L61.7461 24.4515L71.1239 32.6456L65.0716 43.6025L67.0684 56.0005L55.4961 60.4436L49.1775 71.2444L37.5 67.0947L25.8225 71.2444L19.5039 60.4436L7.93164 56.0005L9.9284 43.6025L3.8761 32.6456L13.2539 24.4515L15.5536 12.1077L27.9245 11.9515L37.5 3.99661L47.0755 11.9515ZM45.9523 25.8483L26.6592 50.5945L29.0476 52.5145L48.3407 27.7683L45.9523 25.8483ZM27.3449 32.9949C28.1861 32.9949 28.868 32.3024 28.868 31.4483C28.868 30.5941 28.1861 29.9016 27.3449 29.9016C26.5037 29.9016 25.8217 30.5941 25.8217 31.4483C25.8217 32.3024 26.5037 32.9949 27.3449 32.9949ZM27.3449 36.0882C29.8685 36.0882 31.9143 34.0108 31.9143 31.4483C31.9143 28.8857 29.8685 26.8083 27.3449 26.8083C24.8213 26.8083 22.7755 28.8857 22.7755 31.4483C22.7755 34.0108 24.8213 36.0882 27.3449 36.0882ZM48.1616 46.9146C48.1616 47.7688 47.4797 48.4613 46.6385 48.4613C45.7973 48.4613 45.1154 47.7688 45.1154 46.9146C45.1154 46.0604 45.7973 45.368 46.6385 45.368C47.4797 45.368 48.1616 46.0604 48.1616 46.9146ZM51.2079 46.9146C51.2079 49.4772 49.1621 51.5545 46.6385 51.5545C44.1149 51.5545 42.0691 49.4772 42.0691 46.9146C42.0691 44.3521 44.1149 42.2747 46.6385 42.2747C49.1621 42.2747 51.2079 44.3521 51.2079 46.9146Z" fill="#DBA342"/>
</svg>
